<?xml version="1.0" standalone="no"?>
<!DOCTYPE svg PUBLIC "-//W3C//DTD SVG 20010904//EN"
 "http://www.w3.org/TR/2001/REC-SVG-20010904/DTD/svg10.dtd">
<svg version="1.0" xmlns="http://www.w3.org/2000/svg"
 width="256.000000pt" height="256.000000pt" viewBox="0 0 256.000000 256.000000"
 preserveAspectRatio="xMidYMid meet">
<g transform="translate(0.000000,256.000000) scale(0.100000,-0.100000)"
fill="#000000" stroke="none">
<path d="M773 2248 c-53 -59 -188 -403 -294 -753 -5 -16 -16 -52 -24 -78 -8
-26 -15 -57 -15 -69 0 -12 -6 -49 -12 -81 l-13 -60 -59 -28 c-33 -16 -85 -33
-115 -40 -100 -20 -122 -69 -51 -114 23 -14 39 -29 36 -34 -3 -4 -24 -14 -48
-21 -58 -18 -70 -29 -66 -59 2 -18 17 -36 50 -58 26 -17 53 -33 60 -36 10 -4
11 -7 0 -18 -32 -34 -7 -71 108 -156 112 -83 378 -229 505 -277 39 -15 90 -36
115 -47 95 -42 250 -79 330 -79 80 0 235 37 330 79 25 11 80 34 123 50 154 60
464 241 575 336 43 38 53 69 30 94 -11 11 -10 14 0 18 7 3 34 19 60 36 33 22
48 40 50 58 4 30 -8 41 -66 59 -24 7 -45 17 -48 21 -3 5 13 20 36 34 69 43 48
94 -45 111 -22 3 -72 21 -110 39 -71 32 -71 32 -83 84 -7 29 -12 63 -12 75 0
53 -129 456 -212 661 -94 235 -119 275 -168 275 -22 0 -36 -15 -90 -97 -35
-54 -91 -145 -125 -203 -34 -58 -72 -121 -84 -140 l-24 -35 -137 0 -137 0 -24
35 c-12 19 -50 82 -84 140 -34 58 -90 149 -125 203 -54 82 -68 97 -90 97 -15
0 -36 -10 -47 -22z m101 -112 c26 -38 78 -122 115 -185 37 -64 81 -137 97
-163 l29 -48 60 7 c76 9 134 9 210 0 l60 -7 34 58 c18 31 58 100 89 152 47 80
148 235 173 263 4 5 19 -11 33 -36 28 -47 114 -253 145 -347 42 -126 109 -386
103 -403 -1 -4 5 -34 13 -66 8 -33 15 -69 15 -80 0 -43 38 -108 72 -124 70
-32 156 -64 193 -71 l38 -8 -29 -18 c-16 -11 -48 -22 -71 -26 -73 -11 -52 -43
60 -93 37 -17 67 -33 67 -36 0 -10 -83 -43 -127 -50 -24 -4 -45 -11 -48 -15
-3 -5 4 -24 15 -42 11 -18 20 -36 20 -39 0 -4 -21 -14 -47 -24 -27 -10 -59
-26 -73 -35 -39 -28 -158 -90 -171 -90 -6 0 -25 -6 -42 -14 -122 -55 -260
-110 -365 -146 -206 -69 -267 -83 -372 -82 -99 1 -117 5 -285 67 -55 20 -108
38 -118 40 -9 2 -34 13 -55 23 -20 11 -73 37 -117 57 -44 21 -91 46 -105 55
-14 10 -47 30 -75 45 -27 15 -74 46 -104 68 -49 36 -53 42 -37 51 70 42 81 67
30 73 -36 5 -138 53 -129 61 4 4 43 25 88 47 79 39 107 65 70 65 -10 0 -43 12
-73 26 l-55 26 34 14 c18 8 36 12 40 10 3 -2 44 15 91 37 84 42 84 42 101 97
10 30 18 69 18 85 1 57 144 526 192 630 15 33 39 89 53 124 34 83 76 155 85
144 4 -4 29 -39 55 -77z"/>
<path d="M765 2054 c-52 -113 -52 -115 -65 -159 -7 -22 -18 -54 -26 -72 -8
-17 -14 -40 -14 -51 0 -12 -4 -23 -9 -26 -12 -8 -35 -122 -27 -135 10 -15 58
-14 136 3 121 26 195 48 227 67 l32 20 -33 52 c-31 49 -126 249 -156 327 -7
19 -17 39 -21 44 -4 5 -24 -27 -44 -70z"/>
<path d="M1735 2094 c-8 -20 -15 -38 -15 -41 0 -13 -118 -256 -146 -300 l-33
-52 32 -20 c48 -29 257 -81 329 -81 40 0 57 24 40 57 -6 10 -11 21 -11 25 -7
44 -15 69 -22 74 -5 3 -9 15 -9 27 0 13 -6 31 -13 42 -7 11 -19 40 -26 65 -6
25 -16 54 -21 65 -53 118 -81 175 -85 175 -2 0 -12 -16 -20 -36z"/>
<path d="M901 1234 c-26 -33 -26 -41 -1 -81 24 -39 85 -72 149 -80 41 -5 52
-2 70 16 32 32 27 68 -17 110 -66 63 -165 80 -201 35z"/>
<path d="M1514 1236 c-86 -40 -117 -103 -73 -147 18 -18 29 -21 70 -16 64 8
125 41 149 80 26 42 25 53 -5 82 -31 32 -74 32 -141 1z"/>
<path d="M639 1092 c-26 -23 -31 -36 -36 -89 -7 -76 2 -128 28 -154 18 -18 34
-19 238 -19 206 0 220 1 245 21 35 28 37 95 4 126 -60 55 -302 143 -393 143
-46 0 -60 -5 -86 -28z"/>
<path d="M1674 1085 c-113 -37 -198 -77 -231 -108 -34 -31 -32 -98 3 -126 25
-20 39 -21 250 -21 247 0 247 0 260 66 3 19 4 64 2 101 -4 59 -7 69 -36 94
-45 41 -114 39 -248 -6z"/>
</g>
</svg>
